<mxfile host="app.diagrams.net" agent="Mozilla/5.0 (Windows NT 10.0; Win64; x64) AppleWebKit/537.36 (KHTML, like Gecko) Chrome/135.0.0.0 Safari/537.36" version="27.0.3">
  <diagram name="Page-1" id="-FLZ6P4yEj9GTk1bE-bO">
    <mxGraphModel dx="4606" dy="1413" grid="1" gridSize="10" guides="1" tooltips="1" connect="1" arrows="1" fold="1" page="1" pageScale="1" pageWidth="850" pageHeight="1100" math="0" shadow="0">
      <root>
        <mxCell id="0" />
        <mxCell id="1" parent="0" />
        <mxCell id="AuoVzqUumYwT1XtdWO35-16" value="AWS Cloud" style="points=[[0,0],[0.25,0],[0.5,0],[0.75,0],[1,0],[1,0.25],[1,0.5],[1,0.75],[1,1],[0.75,1],[0.5,1],[0.25,1],[0,1],[0,0.75],[0,0.5],[0,0.25]];outlineConnect=0;gradientColor=none;html=1;whiteSpace=wrap;fontSize=12;fontStyle=0;container=1;pointerEvents=0;collapsible=0;recursiveResize=0;shape=mxgraph.aws4.group;grIcon=mxgraph.aws4.group_aws_cloud_alt;strokeColor=#232F3E;fillColor=none;verticalAlign=top;align=left;spacingLeft=30;fontColor=#232F3E;dashed=0;" vertex="1" parent="1">
          <mxGeometry x="80" y="60" width="860" height="920" as="geometry" />
        </mxCell>
        <mxCell id="AuoVzqUumYwT1XtdWO35-45" value="" style="sketch=0;points=[[0,0,0],[0.25,0,0],[0.5,0,0],[0.75,0,0],[1,0,0],[0,1,0],[0.25,1,0],[0.5,1,0],[0.75,1,0],[1,1,0],[0,0.25,0],[0,0.5,0],[0,0.75,0],[1,0.25,0],[1,0.5,0],[1,0.75,0]];outlineConnect=0;fontColor=#232F3E;fillColor=#E7157B;strokeColor=#ffffff;dashed=0;verticalLabelPosition=bottom;verticalAlign=top;align=center;html=1;fontSize=12;fontStyle=0;aspect=fixed;shape=mxgraph.aws4.resourceIcon;resIcon=mxgraph.aws4.eventbridge;" vertex="1" parent="AuoVzqUumYwT1XtdWO35-16">
          <mxGeometry x="260" y="820" width="48" height="48" as="geometry" />
        </mxCell>
        <mxCell id="AuoVzqUumYwT1XtdWO35-46" value="AWS&amp;nbsp;&lt;br&gt;Event Bridge" style="text;html=1;align=center;verticalAlign=middle;whiteSpace=wrap;rounded=0;" vertex="1" parent="AuoVzqUumYwT1XtdWO35-16">
          <mxGeometry x="238" y="880" width="92" height="30" as="geometry" />
        </mxCell>
        <mxCell id="AuoVzqUumYwT1XtdWO35-61" value="" style="sketch=0;points=[[0,0,0],[0.25,0,0],[0.5,0,0],[0.75,0,0],[1,0,0],[0,1,0],[0.25,1,0],[0.5,1,0],[0.75,1,0],[1,1,0],[0,0.25,0],[0,0.5,0],[0,0.75,0],[1,0.25,0],[1,0.5,0],[1,0.75,0]];outlineConnect=0;fontColor=#232F3E;fillColor=#7AA116;strokeColor=#ffffff;dashed=0;verticalLabelPosition=bottom;verticalAlign=top;align=center;html=1;fontSize=12;fontStyle=0;aspect=fixed;shape=mxgraph.aws4.resourceIcon;resIcon=mxgraph.aws4.s3;" vertex="1" parent="AuoVzqUumYwT1XtdWO35-16">
          <mxGeometry x="770" y="700" width="58" height="58" as="geometry" />
        </mxCell>
        <mxCell id="AuoVzqUumYwT1XtdWO35-62" value="S3 Integration" style="text;html=1;align=center;verticalAlign=middle;whiteSpace=wrap;rounded=0;" vertex="1" parent="AuoVzqUumYwT1XtdWO35-16">
          <mxGeometry x="770" y="758" width="60" height="30" as="geometry" />
        </mxCell>
        <mxCell id="AuoVzqUumYwT1XtdWO35-71" value="AWS Secrets Manager" style="sketch=0;outlineConnect=0;fontColor=#232F3E;gradientColor=none;strokeColor=#ffffff;fillColor=#232F3E;dashed=0;verticalLabelPosition=middle;verticalAlign=bottom;align=center;html=1;whiteSpace=wrap;fontSize=10;fontStyle=1;spacing=3;shape=mxgraph.aws4.productIcon;prIcon=mxgraph.aws4.secrets_manager;" vertex="1" parent="AuoVzqUumYwT1XtdWO35-16">
          <mxGeometry x="670" y="570" width="80" height="110" as="geometry" />
        </mxCell>
        <mxCell id="AuoVzqUumYwT1XtdWO35-17" value="VPC" style="points=[[0,0],[0.25,0],[0.5,0],[0.75,0],[1,0],[1,0.25],[1,0.5],[1,0.75],[1,1],[0.75,1],[0.5,1],[0.25,1],[0,1],[0,0.75],[0,0.5],[0,0.25]];outlineConnect=0;gradientColor=none;html=1;whiteSpace=wrap;fontSize=12;fontStyle=0;container=1;pointerEvents=0;collapsible=0;recursiveResize=0;shape=mxgraph.aws4.group;grIcon=mxgraph.aws4.group_vpc2;strokeColor=#8C4FFF;fillColor=none;verticalAlign=top;align=left;spacingLeft=30;fontColor=#AAB7B8;dashed=0;" vertex="1" parent="1">
          <mxGeometry x="120" y="120" width="590" height="740" as="geometry" />
        </mxCell>
        <mxCell id="AuoVzqUumYwT1XtdWO35-31" value="Public Subnet" style="shape=mxgraph.ibm.box;prType=subnet;fontStyle=0;verticalAlign=top;align=left;spacingLeft=32;spacingTop=4;fillColor=#E6F0E2;rounded=0;whiteSpace=wrap;html=1;strokeColor=#00882B;strokeWidth=1;dashed=0;container=1;spacing=-4;collapsible=0;expand=0;recursiveResize=0;" vertex="1" parent="AuoVzqUumYwT1XtdWO35-17">
          <mxGeometry x="40" y="40" width="520" height="280" as="geometry" />
        </mxCell>
        <mxCell id="AuoVzqUumYwT1XtdWO35-35" value="" style="outlineConnect=0;dashed=0;verticalLabelPosition=bottom;verticalAlign=top;align=center;html=1;shape=mxgraph.aws3.application_load_balancer;fillColor=#F58534;gradientColor=none;" vertex="1" parent="AuoVzqUumYwT1XtdWO35-31">
          <mxGeometry x="205" y="40" width="74" height="77.22" as="geometry" />
        </mxCell>
        <mxCell id="AuoVzqUumYwT1XtdWO35-36" value="" style="rounded=0;whiteSpace=wrap;html=1;fillColor=#3333FF;" vertex="1" parent="AuoVzqUumYwT1XtdWO35-31">
          <mxGeometry x="110" y="200" width="70" height="40" as="geometry" />
        </mxCell>
        <mxCell id="AuoVzqUumYwT1XtdWO35-37" value="" style="rounded=0;whiteSpace=wrap;html=1;fillColor=#00CC00;" vertex="1" parent="AuoVzqUumYwT1XtdWO35-31">
          <mxGeometry x="290" y="200" width="80" height="40" as="geometry" />
        </mxCell>
        <mxCell id="AuoVzqUumYwT1XtdWO35-38" value="&lt;font style=&quot;color: rgb(255, 255, 255);&quot;&gt;Blue TG&lt;/font&gt;" style="text;html=1;align=center;verticalAlign=middle;whiteSpace=wrap;rounded=0;" vertex="1" parent="AuoVzqUumYwT1XtdWO35-31">
          <mxGeometry x="115" y="205" width="60" height="30" as="geometry" />
        </mxCell>
        <mxCell id="AuoVzqUumYwT1XtdWO35-39" value="&lt;font style=&quot;color: rgb(255, 255, 255);&quot;&gt;Green TG&lt;/font&gt;" style="text;html=1;align=center;verticalAlign=middle;whiteSpace=wrap;rounded=0;" vertex="1" parent="AuoVzqUumYwT1XtdWO35-31">
          <mxGeometry x="300" y="205" width="60" height="30" as="geometry" />
        </mxCell>
        <mxCell id="AuoVzqUumYwT1XtdWO35-40" value="" style="endArrow=classic;html=1;rounded=0;" edge="1" parent="AuoVzqUumYwT1XtdWO35-31">
          <mxGeometry width="50" height="50" relative="1" as="geometry">
            <mxPoint x="180" y="200" as="sourcePoint" />
            <mxPoint x="180" y="200" as="targetPoint" />
            <Array as="points">
              <mxPoint x="230" y="120" />
            </Array>
          </mxGeometry>
        </mxCell>
        <mxCell id="AuoVzqUumYwT1XtdWO35-41" value="" style="endArrow=classic;html=1;rounded=0;" edge="1" parent="AuoVzqUumYwT1XtdWO35-31">
          <mxGeometry width="50" height="50" relative="1" as="geometry">
            <mxPoint x="310" y="190" as="sourcePoint" />
            <mxPoint x="310" y="190" as="targetPoint" />
            <Array as="points">
              <mxPoint x="270" y="120" />
            </Array>
          </mxGeometry>
        </mxCell>
        <mxCell id="AuoVzqUumYwT1XtdWO35-48" value="ALB" style="text;html=1;align=center;verticalAlign=middle;whiteSpace=wrap;rounded=0;" vertex="1" parent="AuoVzqUumYwT1XtdWO35-31">
          <mxGeometry x="212" y="10" width="60" height="30" as="geometry" />
        </mxCell>
        <mxCell id="AuoVzqUumYwT1XtdWO35-34" value="Private Subnet" style="shape=mxgraph.ibm.box;prType=subnet;fontStyle=0;verticalAlign=top;align=left;spacingLeft=32;spacingTop=4;fillColor=#E6F0E2;rounded=0;whiteSpace=wrap;html=1;strokeColor=#00882B;strokeWidth=1;dashed=0;container=1;spacing=-4;collapsible=0;expand=0;recursiveResize=0;" vertex="1" parent="AuoVzqUumYwT1XtdWO35-17">
          <mxGeometry x="40" y="340" width="520" height="390" as="geometry" />
        </mxCell>
        <mxCell id="AuoVzqUumYwT1XtdWO35-7" value="" style="rounded=1;fillColor=none;gradientColor=none;arcSize=10;dashed=1;" vertex="1" parent="AuoVzqUumYwT1XtdWO35-34">
          <mxGeometry x="100" y="80" width="370" height="210" as="geometry" />
        </mxCell>
        <mxCell id="AuoVzqUumYwT1XtdWO35-9" value="Amazon ECS" style="sketch=0;outlineConnect=0;fontColor=#232F3E;gradientColor=none;strokeColor=#ffffff;fillColor=#232F3E;dashed=0;verticalLabelPosition=middle;verticalAlign=bottom;align=center;html=1;whiteSpace=wrap;fontSize=10;fontStyle=1;spacing=3;shape=mxgraph.aws4.productIcon;prIcon=mxgraph.aws4.ecs;" vertex="1" parent="AuoVzqUumYwT1XtdWO35-34">
          <mxGeometry x="116.99" y="59" width="66.02" height="61.4" as="geometry" />
        </mxCell>
        <mxCell id="AuoVzqUumYwT1XtdWO35-42" value="" style="rounded=1;fillColor=none;gradientColor=none;arcSize=10;dashed=1;" vertex="1" parent="AuoVzqUumYwT1XtdWO35-34">
          <mxGeometry x="100" y="290" width="370" height="60" as="geometry" />
        </mxCell>
        <mxCell id="AuoVzqUumYwT1XtdWO35-43" value="" style="sketch=0;points=[[0,0,0],[0.25,0,0],[0.5,0,0],[0.75,0,0],[1,0,0],[0,1,0],[0.25,1,0],[0.5,1,0],[0.75,1,0],[1,1,0],[0,0.25,0],[0,0.5,0],[0,0.75,0],[1,0.25,0],[1,0.5,0],[1,0.75,0]];outlineConnect=0;fontColor=#232F3E;fillColor=#ED7100;strokeColor=#ffffff;dashed=0;verticalLabelPosition=bottom;verticalAlign=top;align=center;html=1;fontSize=12;fontStyle=0;aspect=fixed;shape=mxgraph.aws4.resourceIcon;resIcon=mxgraph.aws4.fargate;" vertex="1" parent="AuoVzqUumYwT1XtdWO35-34">
          <mxGeometry x="180" y="301" width="48" height="48" as="geometry" />
        </mxCell>
        <mxCell id="AuoVzqUumYwT1XtdWO35-44" value="ECS Fargate" style="text;html=1;align=center;verticalAlign=middle;whiteSpace=wrap;rounded=0;" vertex="1" parent="AuoVzqUumYwT1XtdWO35-34">
          <mxGeometry x="235" y="310" width="145" height="30" as="geometry" />
        </mxCell>
        <mxCell id="AuoVzqUumYwT1XtdWO35-22" value="Servico carga lead" style="text;html=1;align=center;verticalAlign=middle;whiteSpace=wrap;rounded=0;" vertex="1" parent="AuoVzqUumYwT1XtdWO35-34">
          <mxGeometry x="120" y="210" width="60" height="30" as="geometry" />
        </mxCell>
        <mxCell id="AuoVzqUumYwT1XtdWO35-50" value="ECS Cluster&lt;br&gt;(cargas salesforce)" style="text;html=1;align=center;verticalAlign=middle;whiteSpace=wrap;rounded=0;" vertex="1" parent="AuoVzqUumYwT1XtdWO35-34">
          <mxGeometry x="180" y="86.4" width="116.99" height="30" as="geometry" />
        </mxCell>
        <mxCell id="AuoVzqUumYwT1XtdWO35-52" value="" style="outlineConnect=0;dashed=0;verticalLabelPosition=bottom;verticalAlign=top;align=center;html=1;shape=mxgraph.aws3.ec2_compute_container;fillColor=#F58534;gradientColor=none;" vertex="1" parent="AuoVzqUumYwT1XtdWO35-34">
          <mxGeometry x="123.00999999999999" y="160" width="60" height="34.5" as="geometry" />
        </mxCell>
        <mxCell id="AuoVzqUumYwT1XtdWO35-54" value="" style="outlineConnect=0;dashed=0;verticalLabelPosition=bottom;verticalAlign=top;align=center;html=1;shape=mxgraph.aws3.ec2_compute_container;fillColor=#F58534;gradientColor=none;" vertex="1" parent="AuoVzqUumYwT1XtdWO35-34">
          <mxGeometry x="255" y="160" width="60" height="34.5" as="geometry" />
        </mxCell>
        <mxCell id="AuoVzqUumYwT1XtdWO35-55" value="" style="outlineConnect=0;dashed=0;verticalLabelPosition=bottom;verticalAlign=top;align=center;html=1;shape=mxgraph.aws3.ec2_compute_container;fillColor=#F58534;gradientColor=none;" vertex="1" parent="AuoVzqUumYwT1XtdWO35-34">
          <mxGeometry x="380" y="160" width="60" height="34.5" as="geometry" />
        </mxCell>
        <mxCell id="AuoVzqUumYwT1XtdWO35-56" value="Servico&amp;nbsp;&lt;br&gt;account" style="text;html=1;align=center;verticalAlign=middle;whiteSpace=wrap;rounded=0;" vertex="1" parent="AuoVzqUumYwT1XtdWO35-34">
          <mxGeometry x="255" y="210" width="60" height="30" as="geometry" />
        </mxCell>
        <mxCell id="AuoVzqUumYwT1XtdWO35-58" value="Servico&amp;nbsp;&lt;br&gt;oportunidade" style="text;html=1;align=center;verticalAlign=middle;whiteSpace=wrap;rounded=0;" vertex="1" parent="AuoVzqUumYwT1XtdWO35-34">
          <mxGeometry x="380" y="210" width="60" height="30" as="geometry" />
        </mxCell>
        <mxCell id="AuoVzqUumYwT1XtdWO35-74" value="" style="endArrow=classic;startArrow=classic;html=1;rounded=0;" edge="1" parent="AuoVzqUumYwT1XtdWO35-34" target="AuoVzqUumYwT1XtdWO35-71">
          <mxGeometry width="50" height="50" relative="1" as="geometry">
            <mxPoint x="490" y="310" as="sourcePoint" />
            <mxPoint x="540" y="260" as="targetPoint" />
          </mxGeometry>
        </mxCell>
        <mxCell id="AuoVzqUumYwT1XtdWO35-47" value="" style="endArrow=classic;html=1;rounded=0;entryX=0.277;entryY=1.025;entryDx=0;entryDy=0;entryPerimeter=0;" edge="1" parent="AuoVzqUumYwT1XtdWO35-17" target="AuoVzqUumYwT1XtdWO35-42">
          <mxGeometry width="50" height="50" relative="1" as="geometry">
            <mxPoint x="242" y="760" as="sourcePoint" />
            <mxPoint x="260" y="752" as="targetPoint" />
          </mxGeometry>
        </mxCell>
        <mxCell id="AuoVzqUumYwT1XtdWO35-59" value="" style="endArrow=classic;html=1;rounded=0;entryX=0.413;entryY=-0.005;entryDx=0;entryDy=0;entryPerimeter=0;" edge="1" parent="AuoVzqUumYwT1XtdWO35-17" source="AuoVzqUumYwT1XtdWO35-31" target="AuoVzqUumYwT1XtdWO35-7">
          <mxGeometry width="50" height="50" relative="1" as="geometry">
            <mxPoint x="180" y="340" as="sourcePoint" />
            <mxPoint x="230" y="290" as="targetPoint" />
          </mxGeometry>
        </mxCell>
        <mxCell id="AuoVzqUumYwT1XtdWO35-64" value="" style="endArrow=classic;startArrow=classic;html=1;rounded=0;exitX=1;exitY=0.75;exitDx=0;exitDy=0;" edge="1" parent="1" source="AuoVzqUumYwT1XtdWO35-42" target="AuoVzqUumYwT1XtdWO35-61">
          <mxGeometry width="50" height="50" relative="1" as="geometry">
            <mxPoint x="700" y="810" as="sourcePoint" />
            <mxPoint x="750" y="760" as="targetPoint" />
          </mxGeometry>
        </mxCell>
        <mxCell id="AuoVzqUumYwT1XtdWO35-69" value="" style="shape=image;verticalLabelPosition=bottom;labelBackgroundColor=default;verticalAlign=top;aspect=fixed;imageAspect=0;image=data:image/png,iVBORw0KGgoAAAANSUhEUgAABkAAAASwCAMAAACU33alAAABMlBMVEUAAAAAoeAAoeAAoeAAoeAAoeAAoeAAoeAAoeAAoeAAoeAAoeAAoeAAoeAAoeAAoeAAoeAAoeAAoeAAoeAAoeAAoeAAoeAAoeAAoeAAoeAAoeAAoeAAoeAAoeAAoeAAoeAAoeAAoeAAoeAAoeAAoeAAoeAAoeAAoeAAoeAAoeAAoeAAoeD///4ws+ZAueggreSA0O+g3PMDouEIpOERqOL9/v4NpuLg9Pr5/f2x4/X1/P0lr+UXquNUwOqP1vFoyO2U2PLK7Pg3tudzzO7m9vvQ7via2vLA6PeJ1PBPvupfxOtuyu0bq+MrseW85/ZGu+io3/TF6ve35fbw+fxLvenq9/xaw+vy+vzt+fx4zu5jxuzW8PmE0vDj9fs8uOfd8/rS7/na8vqr4PSu4vV8z++k3vMHUM7hAAAAK3RSTlMA+/YWBfGiPuHNN+ch1BC520/Gkm6reuwMRDEJJ5p0shyBv1VoYSxKW4eMDG4UNwAAVstJREFUeNrswYEAAAAAgKD9qRepAgAAAAAAAAAAAAAAAAAAAAAAAAAAAAAAAAAAAAAAAAAAAAAAAAAAAAAAAAAAAAAAAAAAAAAAAAAAAABg9uBAAAAAAADI/7URVFVVVVVVVVVVVVVVVVVVVVVVVVVVVVVVVVVVVVVVVVVVVVVVVVVVVVVVVVVVVVVVVVVVVVVVVVVVVVWFfXtbThOMogCMRjxgCSqo2IAkiBr93//9Or3oRS7amc7kgOb7XmLPWms2AAAAAAAAAAAAAAAAAAAAAAAAAAAAAAAAAAAAAAAAAAAAAAAAwHsoH38rIwD4m7KanF+LzbVeZ+0snW7j8FYczxezNmvG+WV/XCbVQwTAN1ZW5+6lbmbTYfhv2zQbX7pl4pQAfCOjH7sib9I4vIfBIsv3y5OmC+Culcnx2iwG4QPM27yYyCMA9+f0es2m4aNt27pLniIA7sEo6erVMHyeQTouJjotgJv2fLiuhuFLpPWxigC4QT+L9Tx8rTjb7EQRgBsySvZNHPphsHrZWUUAbkFV9OZ4/DFsN5NRBEB/PRzG09BPcdM9RwD00WmzCv2WXgQRgJ4ZnfO+Ro+34vXhMQKgH54O476tHv8yaI5e1n+xd6dbagJBGIYBGdzYFGgGFxRElOn7v7/8SObknGQycUGlu9/nFvhRdFV93QDweuEhc6Ry6pSBCAC80vqQ2VJRdUMvCwBepFCqc/U3e3cgIQIAT9cmc6k+xyssAMDzjNKp1MWk8i0AwFOc1B18fC0608oCgIcbCTUCH9d5S1oLAPBAhW6Hj9/qAyl1AHiQ9zSWOptXBAwB4AH8RO2l3UvY2dgCAPSq2EkzTOlkAUB/3HMgzTFJecUQAHqxTnXcu/pO3jEMAYC7japcmsfeki4EgLuMEgWv2u2F7W0sAADl4xYZ4UIAoHzcJltZAADKxy0yGlkAcJWwo3x8jtN5u/CX9307XpyPaVl9JIn3KUmSrqrS46EYt35IiAYw3brUP3R+OScxeal3tDo1IsnqOLflJfKgzhLRLGbUXcBEbqPDU1F9cirzooXh6iy2UeDIm9lxtBXHMYUEMMjJpNT5peaNZQx/IbxlLnvjTD2xaOltAfpb1RJfCQx4+zYsSm/qyIew40ycTO4FAtrbexL/EukcCwkLkcXy4ea77kDGH9CRK1i9+o691fMPum28WD7RPCtndLQAvZz0fi6qD7luoxB3LKI3+QLOsluEFgA9bEx58OM+05mlC3cmIke+0vSjWFsAVLfutH3rvG969LH8ZjeIrI9TC31KMmAmulcm9bHWp2RQ3zv3znSzAFWNMolrLBXexwqP2QBXJew6ZTkLUFEziF6GUuxKzS2ifTngmE/Q0cwCFLNZSlwvGFuq2ZeD/9Rxx/35gDpcwfD8Rlul7sdSoHr8FFcK9wcBo6ymEreaK3O5yfsxkgoJBBcwAoPnVhw/DDiEFN4Ap+b/EZ0JiACD1nL8uNdk8JMQv5pIJb1tGakDw1Vy/OhBMuQ/ZfegVOvqT0GpRWYT0I8/4H1OpcSD/VH2u1wq7gd7d7rUKhCEYbghOxoUzYbbIYmYZe7//k6Vv451NAYYmGbmfS7BVNlFd3898VjtXxcIWEn2w5ZoJRrlntw2eyg1f+MBAUqJntu0U7c0tFl49Kzk+kRIHdBj0tO5qlrrTDQpzp59X0ZLOlmAEmQH7XvV02d5Gvv4++4OAsC5gul5G+ZK8tN5r/euLpmX/bw/Bngk7/1mjlLxUdzLenKvpJ7pQs93HhCircEXPrWx9t4nQ2/eepH9B7w08La/ocLsVhwqPVq8+tl6RQkBnEjYvmrXKBNX9kGUD0oI4MrCx+0cZU7iROZ98+pf6zfG6UC3hmOD9t2l0rnc69H5d6YaNhaAcBTB/ZNx5P5FuvXhyc2Sama9eYwF6L/JjUE3RgfpUPFqArUjnQ50453xR4dW0pXNtn9vRdmzVHeDDPDR2aBLy2fpxDHw78p4+ywAWrUJsknu1MNA2pcw1jLTvQBoURFMQkCR6Ye0bMBW3aedkiNkgJeSwNscjoxyadXCs4vt9UWPqQBoRRbylNWlqJT2JEEFB39zQx8LaMXCoCr1qfT00eCLP7xZCNh3MnBnPJQ27GlK/ifmugnwiesl3rh7FusKduq+NSNXCNiUcry9FtXrvCXD85+cCYUA1gwYtLo3L8SmW94jvuCejxCA+IdPrAZC3lmpuyg6MQkBbHjh8Sgd1olYUtCS/NX8SQA09bQ20GGUiBVHftIrRFs+QoCGEkatesS5NJcuDa4yexEADeTUD03igzQ1oSN5tVEpAGrLmbXqEmXSyHBrUMF4IwCoH744SgO33G1noRfoRsbrgwodpbY9DcnKopUAoH74Yi/1DLmcWMvdQABUdKB+6FRzDlLQvqppShsLYP7hi1oV5ED4o7boXQBQP/xQo4KwfdXImPOKwPUm1A/NolwqSbnc3tCcUCFA/twTcSIVfNwbNDTKBH/Zu/edNKIgDsDDxWIFKYiX1kVLpFHTff/3a0jTG0XYhLPC4XzfK+wfk50zMz9oYq5ffuzOnqOxpd/JFB4D2G3k2sXxG849fzRy9MHCcFJ6Gh45mCyiicrtxJUjjYWEUzOWH5WHy3HstpAmmdC5kBDYqrJvlourKna5H9Yk1F0G8DYdj3x8jR2mns9XPKXD+3AvKSez2Oq6JrlZAJs91uTkMbb4XtOCG1vpsNFrTV6W8Za+ZuQ/DGNBuwYO8OamM4jNxk81LZmMArCAnr+7eWzSM77boqFxXlgztkCYo8k4/jfyLVt1NgjgL309jzx96se6Z8doWtZ9CeCPh5o8zWLNhV5k6zqvARjgzd83YWAHIKYQfvlSk63OQP04gOsAVuYSpHJ2N4rfpmax38ttABGfXeDN22WlfjShgkB6IrNz9yF+elU/tlJBoCmZdeW49v/RiAoCab3UZK9zoX40ooJASgtbA6dg2FM/GlFBIJ2+q0mn4elF/WjKNC+IkILDs1FIuUSAwH5cNaFUc2vLsJ/ONKBElQcQ2FfXdXeK5AEE9ncmYYoCTWtgf8N5QGFsgEAak15AWWQQQiJXVUBJbmsgkZuAgtxbXIZ0ZgHFqGSAwIqjJmCCFw5rGVAGIeiQWPcioATj8xpIa7gIKMBDDaT20TAvP9i71+VEgSAMwy0qHkDxgChGUU6e5v7vbytVu7WVTbKaxGFgeJ8fuYMU9nT31y3AAxaggyuA7TY8YAFaJAJYjgksQJOzAFbjAQvQpU+uIqz2MlMANJltBLDXVQH4B6lYwANOZGAB75FpAty3UAA06rCRDlsVCoBWQ85LwU7dvgKgVyCAjVYKgG6pAPYZKAD6xQLYpscVKaAKnvk2yPTob8eDeV6WZfgqTV7/FmV5mceD7cnvkvyIrwkVgCocpHq94/hcRrf9KhsN++q+jjdbBKv9NczjnfkPHuqODjpQlUKq8rKLy9QNJmv1Ex1vdFgm+ZibJuAKCGCYcxLdpuNLuhp56rk6w2yfzE88cOGtsQJQlcmLaOPPI3exVloNs2UxmArADjpQuaVo0I1Dd+GoynjZshhTjUDmCsBdtZ3l7Z6j1VCZ0Jm44YCU4VbrkeIOVGq4kSfZxNHK+B3RmVtsBS3FCC9Qsb08wfGyHNUmQtvJrnP6Ii00XSsAj6jPgdtdsfJU7UyWOWsjLXNTACrmTeXb/NI1/mr1ucmej0iLHB0FoGqufMs0r/PH44/RNe4J2oAdQsCEs3zZNmrOxL1zCHcC2+1q04QDWsXbfLX0aFy3cnYbUIjYjTMggBlLedixCBr6S6/vXpjNstdWATBjLA85RSPVZJ2goKtuqUABMGPSk7t2qRV7vllIlq+FSFEEzEnk//zIokNvi5A6xDYUIIA5ji+fOybNfrl6rxNciM2yCQUIYFIgn9iUmbKR456Zy7IGBQhgVC4fiV2L13vXt5PABhQgQMXux/L6aQNWzX9mUTDaawEKEMCwVN7o5e34r3TcWNBs7IAAhr3to/vXGibs6jILKUMajSV0wLiD/Nabt6P4+MvZc4aqufyGZiMAVonl1TSxvvPxkVHJVfWG+sXeveWmEQRRAG1AEGwHGzvIjhxDQiRMUO1/f1F+o8Svj5mq5pw1jNTqnrp1reGFBP7k0Z+3HY9dvexhL19Y0exsv1hIZXfbZ+bjrSYLL1n1nAIgg5/HRilf5wGQw+ogoV7JJgDSWG4syqqjix3RQD8e9pIhRRwDIJfpyUhWCecWWQIqcIRU8BwACTlC8hMiBJJyhCR3LUQIpDW/N5GVmBleILOrjVxIWh019QNdWv9qpPQpAJJbKZ1KSREIUMCN+vR8ZopAgAomWwNZ2ewCoIT5zt/0XKzBAspY3zbyuAyAOr5/bmQhhQ6UMt2rTk/imyYpoJild6wcDgFQzY13rAzOu78fKGpqHmt8PwKgoovLxgcIgQDEF1t6x3URAEUtj43xPAVAXYvrxlj2AVDYlUvI+1hjAuAS8hHWmAC4hIztFADlbY1jvYkXLIC/rWVCBvcYAD2Y7AXTX2UGC+Bf7p4aQ1oFQCemh8ZLpAgB/mfhX/pw7gOgI+vHxkDuAqAnk01jELPgN3v3ltJAEEQBtKN5DeMzGoYoUVEJxtr//lTwRxA1nZkI3edsoqGr6l6gMPfu0n+gixDAN9Y/WwZAcWxjHcB4EgAFWt8mhrUKgCI1J4lBvQZAmbpV4hvKbAF+dZf4whIvwB9NDUKG8xIABWseEgOZBkDJWiUhQ2kDoGgjFyHD2ARA6baJATwHQPGWRumf5JgA7GZxnHhnBAKwq7mq2w/KCAF2NpklRLkDZBg9JVyBAOTQU9ireQBUwzqvICyAPNNxoieXAVCTcwchfdkGQFUWZ4lePAZAXRonhb0YHwVAZS7ku/fhJgCq4yhdkiJAnnaT2Nc6ACrUeUH21gRAjbwgZugAeTo9t9oIAbJMvCCieAG8IId3FQDV8oK4QwfIMzFJz9cFQMXsYslyB8jTuknPNAuAukk1yXQdAJWTrGgJCyDPqXR3S1i8sXevOQmDQRRAR41GRTHWN4IE8IGZ/e9PRaNR2tJ+8vOcbczce4Ei1W3gCQugwJmd9N6GCUDmVdDTcQLwbhL0s0gAPsyCXq4TgJWnoI+DBGBl5yXooUoAPu2Ogu4GCcCXwUnQ1X0C8O10GHQ0TgB+zAUKu7pLAMRBDKID/NtlIAYCUMIzbzeTBMBKeoGzBOC3Q+sgXZwmAF6x5AgBtuIi2CgBWLcMNthLALRiFXhOABzSBdEBtmYetFomALVegzYPCUC986DFLAGod2McpM1FAtDgSJ7QIjqAPOG2TROARougSZUANNp3BtGlCFCkcgZpcpgASIMU2E8A2twFtXYSgDYDpVja3AGKTIMawwRgg8fAHAhAgd1xsOYkAdikCuxJAZS4Dv4aJfDG3p3kJBQFUQCtjxoEQmcDGlBjE2Os/e/PkDggTuQXgck7ZxM3v6l74V+dgVsBAlAydZD+1zABcJAuQABOpRsHAgTASywBAnA2r4EAASjoPoM9ywTgMKNgz2MCcKDnwCssgIKBfVsBAlAyDwQIQMV7IEAACiYPwa9xAnC420CZIkCFWl4BAuAY5CjbBMBAuklbgJNbz4KdWQLgO3rBJgFQqliRAPTzFuwMEgD36AXrBKCf600QsUgAeloFEaMEoKeriyDmCYBfeQvuE4C+um3wlAD09hJ8JwD9DaN5qwRAK2/BRwJQsIzWLROAgmm0zqYtQM1XNM4gCEDN4jLaps8dwDahOl6Ac5q03qmoTRGg6C7adpMAeARRhgX8sHdnOQkFMBRA6wBiFCEqCgghmoBD978/d6DmleBHz9lF0/ZefmIEOabPBGCYm96HWI8JgEMsr+gApzRpPYKsEwAjyAAXCYARxCchwK8kYh3LNAHQCzLALgEYbBV9KbUFKJhFXzoJASrW0dYqARhuEW2plAKoOLuNttzxAlR8RVvXCcBwo2V0NU4ApLoP8JQAFMyjK3m8ADXv0dQmAfBM6AwL4PQ20ZQzLICah2jKGRZAzfNL9KQWHaBoHz1dJQAl99HTMgGoOURP8wSgZBs9LRIAgVjCTAD+xhpdpxTA/3uLlmzRAcqa9kpNE4Ca12hpmwDUTKKlfQJQtIqODglA0ThaGiUANec9X0FmCUDRR3TklRCgbBcdCeQFKDu7i4Yu1doCfLN3dztNRFEYhjfyYwATRY0oBiL+kqwFhRZKQQmtgbYqbS0JUAFNgHD/tyAEPBJK25m1m7De5xJ68qZ7z3yT2PvgEZcgAMCcCZcgANAnb4JDXIIAQHIzwSEuQQCAL9tyCQIAneMMK7EZAe69bKaxuVg+q5e2T1ZXV4+2K2vl481GJitAWp4Hh5jDwv2WrW2WS+t6o0KpeFijIkiB1+ewxgWxZHcyN8oLbOT3z/f0Dq3Tw4wAibl8l3BEEMn+gd5spShIX25jraCdaZIQJOT00+jvBHEsr+utvglStlNtaefqAiTidA9rUBDHH73doiBVmaWCduNIgIQGXG66PxVEsUBAYlkuFrQ7HCIiuYngEGsmURCQeL7vabe+CpDUdHCIB3mjICCx7Oxq104ESGw8ePREYI+ARNLY01vw+8PYVHDomcAeAYnjl/aCp3iRhtng0CuBPQISQ3ZJe9EUIAWjwaGhYYE5AhJBbk17silAGgaDQ7yMHgEBsdZ7PwrLAqRhLjg0ITBHQMxlf2pvzgRIxUhwiDOsCAiIuaq2xZAMjHl9kJczLHsExNqh9qiVEyAdH4NDnGHZIyDG5gv6DzMm6A+nX5XiDMseAbGVX9VrzJigX5wu8nKGZY+A2DrXK8yYoJ+Gh4JDnwTGCIipDb3CjAn662FwaGhSYIuAWMpv6SVmTNBvL4JH7GFZIyCWinqJGRP03ePg0ZjAFgExVFvRjqz8LlV2dyvbW8yYwMiD4BKb7sYIiKG63u2ouF/LyrXc/Ea1WdALB3kBUjQWPJoVmCIgdhb0Lq3qZ/lPbuG4UtoQIE0zwaNHAlMExE5J21s/5m8G4vD6Jkh4K7BEQMw0tL3tmgCxTAaX5gSWCIiZurZ1ytQV4nE6hxVeM2diioBYmde2ylkBIvoQXOJVEFMExMqStnNKPxDXdHBpSmCIgBhZXtc2mpxfISqnH0a/MCqwQ0CM/NA2tr4IENfAy+DSX/buZiXBIIrD+Jgi0pe4sJSCilpE5xgRrSSiAkWkIChctLFF3f8tdAXj6v3PCOf53cTDMGfOXBl0CIjIzDe4NaCsoPsUUxpxjS5EQDQmvsHcgMKiPiXkGl2KgGgsPO/zwYDihimmU4MMAdFYe96vAeX1UlB9gwoBkXj1vCkHEFRxmGIaGFQIiMSd5/0ZUMM4xdTpGUQIiMTM874MKC/uLfrlnkGEgCg8et6UN4Soo5si2j8zyBAQhZXnfRhQxUGKp3O0Y9AhIApzz1saUEXrJEUz5k9bLQKisPY8tpigjnjf2ra7Bi0CIvDmeTMDqgi30Z3Lcz0CIrDyvIUBldykQNpDgxwBEXhmiBfbqJ/iuD426BEQgRfP4xk6Kom0zOSc2d0yCEjz7qee9WNANVG+BBlw/CiEgDTvnU3u2E4xxrBGDF8VQ0Cat/S8bwMqCTKGtcvbj3IISPOePG9iQCUhxrA6Fy3DP3v33qskGAdw3FVbbbXWZbW1al3WWvX7IQKi4kFERDA1vB4VNS219/8Waq31RwU+D/woID8v4Dxses73AM/lrzkHhJ6LgWoynJ39M88KeXfrHpz9ReeA0JuelxGepVPud8O6m5ED0HO0o+p/FZBK+bsKJGhwPgvkLKWuFHLt2jtILb3Y7I7ctb3AH9Rp9ZM3MtoNoQKJkkWrsfK7zsFzO51dtVr93BlPRmapOSMY+S8GRLkozvtHQ5JGmraXnG57Nbz4OyFWhPlRmnyy6/hT3V67ezORD2+GwdpATxa371ftkmEYpmGU/GZj+KECOSQWe0dn73Wq1eX0G7ta/TT2NKnb7s0S+RUsC7NVe2NK0kHTvkhmqd+wsr+P2fNCjj1P6eMrZetrNob46HXnF0CubK26h1boyLZr9D7IEN1fCYhiNU3Pxj9QPx9KszIkaNAzO2rohzfpNkQg5GOwIVCSrZXhfVTxd8uW1B6W4R9RPgznfb9UKvn9VcMSFYhJFppSq45hlq3RcTYAGoP3x1Hnj+MtxmbzQ5bfY10v5Fc6F3/oK62OLJYT35KBSHm28WxktJj4AkSUeECUoTGuYbhPxlCBJFjdNTK5PPQFIDLCYHSlkosbt47h1s6cICK6+EcV+BN529Z26m//5pj9yDkT2l4dGS0nx6ICsYjN0UcMN530LyCjcjyP9wWkjzKfqMhhoa10iKvcMD8hL9ssRqpXsgEpryZ1ZFI/zCtASyxVkcflF94/t/q+jmTUqs/xvdxPkYk69uNFq+IF/WQffqW8H4Vc1m7U/wCcLNNGTrXxZitDNJbxGdnsuh8gi94Wcup2Cvcu0buXyK/VFiEyeVtqqRjNx80FcEswIPJ7rYYc6l+2QGeoIT91suJpiIe0BGBSlPi6NV4pEJmPgX75ul0YSzxlLQK7QamK0Uz3vQrwGpR2yGPdzuC+Zg8K+fQkfYsHRaeGEbmrCkSgDJ1LjEXbAqfEAlJuV5HbuqkAiVkLI6od3svARkdi7+E0pfkJuS27IkQkMV6uxRbsEbCyDirGUNMawGO7V/nH+JK5daH3CrmUvtm7FaOOMSwcAThtpQXG5xaBS0IBKZemGIndlCE2a4xx2BsRWMyQ2Ac4RenbGElNuoAIWAMiTJBNC9gMXYztCzArRh1Oy9iTrJuFPErf64/eJcblvpeB2cD/jES0C+CQSEAUf4qRrYsQT9nBuNSRBaf5SIBnmbrctDEy1dGBG1tAdAlZHYGFNUYKOrARPIxMNbM1Z/paIXcep+7kqMEEKaznjAkRvqhIp3aUgQN9QBpVjMWpQAwzG/Hv3MqNkFYHwg0/YSyLowKcmALSnCIzEU4TD0iipgAL3cFYPmbqjLBbhby5mrrVH7MlEtk14DRBQ2KdD8CKPiBi/PruLIhKMZGKa0G4NdKSIIz+BWP7XAQ+DAEZeMjOhZMUv4409sBitcS4zAxtTJG7hSCvb0DKbJBQawvhyo6K5Oo9YEQekH4d41P7EI3eQkIHEUIoKtJqQ4j5EhlQ392dDsiQ67qacIqw/qtzEkQPCXREyIo3hXx5lLbX58oBaY10CDG0MRGGDEyIA6JPkIakQASCjaRqGyVkMCQ2hEAVCYl8FoDDyYD4yKNWhnDyka7KSxlOakyJxipCRjws5MqrtO3dXnGRmi1CoAYm5aAAC9qAFC+RilsGbtsFUvNkCNJDYjoEEXaEUewDh/CAyA5y0SCc7iIdE05RHKRS60E23C/kyVtImUoL6TkQyMXEeEwFIQ1IX0U66wFwKtaR3gyCGEjrEoI06kjJUYBZeEAc5NOAUEUbCVkQivp5pw+ZkKsTQZ5CyihjTMAeArUwOZoCDOgCIjtIancBXIQFJmAOQTyk5UGAIxIbl4FReEB4E7pQIMyqhoQ+Qyj6551dyIIcrSR8nL7dS/aYhD4E2mCCHGBAFhBFQ2IfuQoi2piEAQS5RFoG/JFsIiv6u7vQgGi008y6SKoE4YoLJGZCBtwp5MXtl5A2X8m7r+3UjTAKwKT3ZKVcpLe1UvemqGFAYHo1xnAAN2wHl7z/K6RnJceZ0WiYIaPkuz82yDraoyn/X6INUR1CMW06QiJjAVJeUMJ+ggRb2jCDSJ2GTfBP/B8pYf/KejSnADF/QLNiSI0r/N3/6x3kP9NS6rlX4JoVrahCok2LojySmAqQYEYLftAYKZs1gcgJDcvjkcT8sJ8gHo259iFg4XsuIDWu0IIruO+j3H/C6+5VT6yvaUUDEk3adFtGAkMBEsxoRb8MNae0olaGSJdmRQH+gUcp+9ns0ZiR6V+jf+JkVaEVl3Def+Mo+sfOHR8E7mjFeQCJsEKbRkhgKEDuaEkVSurntOJHCHk0a4N/MKKc/Wz2aMwxhA5pWBRCIl+jHZH750Fezf0HfP0anLOiHS1I3dGm6BhyZgLkkNZcQMWcdpxAqE+z5nisSYtmPhR4NKUPoQuaVoVEsUdbes63Tf8ml31fO9i8NrilHXlIrWjVE8gZCZAJ7Yk6SNahHT0fIn6FZj3gkZuINh1CgUdTuhAZ07gGxII+7ZnBcf+BprYfOpgfOKKi2nJ5RnVbyPk9WlWAlIkAyddo0W2ARAuqOTs/6C0rRmYAj2nYCk+r92hXA8k8C5sR7d8/Z4H0K9l0BLd9msu6V10rf/WLoMdEm9ZlZ+rjF+Vpp3E0mvcrTNJFghGVROtNfzEcDvvbXmRwRGQgQMo/UM1ydnjUuMnHxXxnNbm6+8HY9voTJqrNHsZxgF8F9fy4qfTHy0NoTMOKeIo/Ywq1622/379dR1RXi5HIs/4uXL5lWrXl+lw6jhtA7JKKNvPS5KSTL8b5m0a3tThTvqhO+yKXcU7mB5pM8MNFEY/5caP0ZCkfdyU4ptR66JUuT+IQfxHmT0vVcyNTaAYCxKOKRTfv4+/qk/uaiW+AGRM8aQR4zD9uXM1qmg06VtSj/ru6VHP2pNQ4LuN3frFw5Klm88JX/eta3BD9I9VtvYtxvh7gd+V6fNNoXv246Km/d8c1Kjj3GiH+zu9cbdSS0mlZL4b1oZP5gW1SYw8fQv5x88ee/t3UpsDGOyqEEIq7QwONPXcOkAaTLUU9ucOjayZq+5A63qXtqJ8/ujvXmI0wvHH5IP/oW1Wo4LxV8PFY8ahtqEGgRzN6Af7ZKRX1WuMyRMKbprfhHw4ka1dtJls0BJ+2o9L6rQGXvZjLNBfXzwHcUCa6CpAk/7CIBKWUpASrL+3RKkSi4tWaSWohJHYOkFDhEzyUIeRfrnfdXX9Imd4KSfybq376t8dip/DIEwpdFySefjtTfNBtJwFEjr2IiSoxEng6YfFk1Bx34mJY/HXyZ3hGnp3gnyhvwK54Nz6SlFejftLWvS4TLQoQi++Y5Nrp/lLZrqb4sYP7d3/RosSyACXh5Sx6+p8GSPL4KMjZvBFCiVL78SYkdg6QAZPc1yFVHiiMXiX8NSXadSiZdtt8ShWptSlURSpNJuoltEyO7wy0CPSYTm9wOsXTijchBKpUsLwKoah+eb9p+RAp1pjgfAK5wjUTdOGwTFdTfN3B84NAwjPo7BiKHj+GBlBwz7+o/XgSII16dZdl9F0DpGOiOWLjjHIPul+AiwDK4tLtjlMRfs1UmYtwaaC5oEp/+FPIeUzj/sRHKmMmi1ohTKkywXCKJOV7yi1DuOuNXHZ97l79kt90KBbdIJX8oCboSSAy5p/akzJSu6xoF3PErgGyoNx1HgriA0qdlyF2SLEfQqRyUo3kJQTkYmMz4y0mqDWgIJwxwUEAKY/q5jFSCg6YaJuHMQUmaPlQUKJcCe56OZdZz7maHygZvRnC7jV/cwsFf77/VH7sQENiJ6UJxHYMkIahikvTH/QnBTYU6yCt4mipX527QbFjpBBHlFvnocQf7HjU36OqbQepPTBRK4Axft9QV6hm4oDHWS/ksuqjd+CqocYITSZoXj819SJ1SJKRV4Suk0h3H9ZuAeL/QKnbOhRND3RXQeoUG0BDWFqKdw/LlShU8ZHCnHK9GKpGlFuWIeNR0chHauHZflvFnlLuAaqOMrsKktl67s+/BVf5NcMHS3+PkHUIJdM16cXYwQUl1hDbLUAmlFrHUBafa26NXFEshobfI6SK9O4p1EcKcUTS0LIcBjuNuj0qqY2h4ZAJaicwyN9QqmXso/8Ad+Uy6kU4K6ZQVIamYDWpQ1G5UMRO/LZmb52dAsTfGCxNutLcCfBAoSF0lccrH+n9QCEPKXiUilZIwZ/pz7eoBsg6Dw31GuVqBZh0Sqmhb+6qOlyV9/1cJn0HdzUoNEQ23GjutNkpQBqUekAqI2qF4Fx1bG1f2dCkRr1idI027Gnv81YMkPUxdIwoF41hVJsy6zrUJbUPmsNZb+ay6D04rEuhQ2REm1pfYqcAGWocIBfzt5S40PjiJ9ivDs18lhKNXlgUKLWBhMdktQ50lJf7PU/RMXuAfEyJmruHCTPZUeptuKyV3dqafzrVPQmiHyB5jX66Mh1KtCGwplCM/WpSbApl/trwhcVAv2Kzx2Sn0NKl3B3MmlOmirSqlBjDVR/nsufVZ+GyOwpNkBFhpLmKrh8gLcocIjWPGk/giEJ17FeLQudQN6ZUC6mF59Sdb/GYyIOeW0pdhzCqHlGiVkRaxYp066OrPsxlzueOFjD5wyzTTY5/N6RYCCH9AAmWlDgLkVocpe+zUKZYEfs1NLOWVjV/zLmr2fldJUCuy9BSoNwJzDqizAjpDShWcXYOK3sB8v4rcNvCnXVYfQ96BdH1A6Rh/jDuPP0UQ51iHezX0shrQxiZv7DBte4yusckY+iZU8qDYX2NkqNycUR3FuCUvZTLms/guH4md1M8ZaW3PqgfIPfG/0PihmJnPv5Jkc68Pk4p1oSyS5q/sGjqtrDwmGAIPeUaZc7qMCumzCF0VCk2gqMyFyDfw3V9Cq19ZITe40s/QIIaJVrQcpv6faJIsXvs1crMy9ATWriw5XNKRCFEPCboQM9kz2e5LygRFaGjQbE2HJW1APkKzmtT7BRZoVUJVj9AGpQ5hpaH1IsgU9XHgn0XFCtDVblCmRh6Rpr7qDxb/fee7LmnRpsSVWiQLwNGri6CZCxAXn0GzhtS7NbV++CRW52aUPoB4tHC8Cufeq9Q6M5xrjmFDqBsTBsXFseUGUDEo1wBOhJzsgnDplaaCM4dWoFTk7UAec7RDiB/UyX/A0cJFzo76vUDpEeJI2i6TltfyHenu+jWyAi3RSsXFn292k0epTbQ1KDMOoBhE0qcB9BzmsGCim/nMuT5L5EBA8o0kQ13OvMM2gFyTJkpNP2YehroXO2MtH1BZKSb1A/avV3kunozY56lpQpvzw015lZ2fE2lP9RNmQqQd5EFJZLM/Gl0j0ILiGgHSJdWFhCbFLvBP9lS5uwE+5I38iY0pcwM2qZ6bec92gm0a0pEU5i2tvOiekChPtyUpQD5FpkwodwgE+sgLZ17WTtA7u0MIPOpXwXvKVXZW/xPjOwpOLW2N2mrNQb3rOzhRay5Mm/l91XK0DWnUMXRDZwZCpCv3a5g8qc8E2xdXRD7q8O9BsiaEjfQFURpd7CWmOBJEXsxMvIsaVEmb+H+kPfO9OwEWnPPS1eXlFhA2wXdKcWm6INcVrzvbAvbpwQVJhnU4brRPgMktlWKdJt2XDpmktpDgD14YmQ2o02JNXZwQmpUu/HsBJqnVVpFn2dpxWVFsRWclJ1dWA63kHrKgolqpRBuK+0zQE4pMYS+u7Sj5DqT9ZoBrOuZWE/1K9a2JQeRTuUpjxJLH5o23O8B0K2lqltx9tZOMxMgGThB+IcrKqgdFvFv8OOTycXhfLbobw56vYOfbfv94ZM77/CyM/Xxuz0HyIhWqjjIJ4Lwj7ZUsL6ow67QyExP3uLx7L7Oj/asrFWEe973KA/PENr8KHMHALISIFlZAPlFh2pmDR/7VB+X5tsKZXrt+8NuI1/ec4DMbE1hN5m2PPuISip3BdhUMDLEnVhslDrQebnxrIwUCpSJYVqHErfYwQGF7uCkjATIR28gQ66pqHcVYz+Kk8GG6tbtzT4DZG3rAbBKPeOep6rb7hTWHBk5FjOiTBm7aJLpbxGPEqc2LhZ7MO7SWuOqBYUWcNKruUz4BFlyRXXt7hS2dX5i7z6XlQiCKACvZc5Zf5hDaVnnIG4iS1JBERUwooiY3v8VzJkddifszoLfA1hXqi7nznRP991XlGc+QAIK1DzI6yavSi4YX78VwAxXyzapqjAAoaRLgRqWc43U0HtMdxfTXWOvFt+LnvdbKR/7QC4hV4pMpN9qwJz63dckrQ4Q8ZVAQcETJl4P2WISleqgBAM6WpoK3lKgCiUlihSxlGvkRDRO+eFulQLTgoJ3jPQcVrri5MDWk8iXEZMJx/eHMMG72Sdpe4AMaIrEN4v/gslUJi8DaObVtIxgr1CgDTVPJeorrpGu4tvin0S7t8yCnS8J9zk5cBA584DJjW8VoZnfKvMrywPkBo2R+HFuMbFwovkQWdfSVdQwOlOnw+THO9fExBqfIg1oV6E59uzkj2erY7/LyJ0eZXSmdejjvXzN7ywPkB6z0MRyfpkSwoc6M+SmlsHeXYrcg5oRBT5gKdfEldqDlGvoDZpj0U7+eA441judow7eHxovyIwz5NGCP1keIA+ZhSYi3KMkfReRMw2lAvUtXWIziZUgrokrtUcUeAjtuoxt/QPEsd62I8ihAaV1pkMoa4z4G8sD5BWz0EaUEaWN9fRlVbVsk2oZvRK5L1Ghd020Lw2Y7hj0e8xEARba4ljvAnJpRHnh5JkPJTef8neWB8hTZsFFlKBMeZV3TzyoKmu56flgtCj7TGKioGuiJjOlwF1o12Jsax8g2x3bXcnBEttlSq+o4kWzDmm+yz/ZHSAeM+EiUqFGFbdvDKGkRC3bpNqkwbbQRxKPTFwT7wjvptzFO2Vsax8gex3b5fIC64v6U6p5+ARy6gv+xe4ACZgJF9FuUk34vgsFXT2TXT6SBh+mdSUm/bomivq9lNcQN5mJOSx0yLHcWeRW4TkVvRr4SG7+gn+zO0CKzIQLgRZVje95kNXSU/uuUqADRUWJp+iuiXnl7yjQhXYu41v3E8gRx277ctiB9VP3OVW9fukhoXsV/sPuACkwE22ItKhscQ+S2no20/Up0IeihkSFxTXx4m+S8tfuO2biASx00LHbReRZ4TaVvbmJRJ6FNK2MKHIBMmcmmhAaVKiscx1Sxnp2Y3eMBkggsVLKSID0me4ivwmTWO823uOO1XK0BGSpYYfqxgXEdy/kMlYHyHVmYgax6y+o7t0QEp7raUu9Y3AUlv4AKUDSOOWv3T7jWv8AOePYbOt25JzvUl3YLiGmeYXL2B0gj5iJKVYodqiuNvWQVFHLFijTAeJJvDIxEiB3Uh4A0mcmSrDQNcdm+dliG+3ZY6orzxFL8QWXsjtA7jETLazi3Q2prlNHQk80LUy9Q5pcUCTx93L6ARJAuw6zUIGNTjgW24l1MKxSXTjzsJq/YIT/ASLX4NldUF3tJZL5wGhDxLegwAhqNjdA7jALt2Gjy469tuVqC6HAk7dUN25gpR6j/A8Qyb567/5jqnN9JDHSsk3K9BUWyIRB9z9AFNyBjS459srxE5C/+NPHVPb6AVa4yaTCx5/VNjRAioil0a7oj3+xV1p6pzamiN5POUD6zEIVNrJ4Jfr53FfQfxPcUI+Q53MIBbfjh1G12XpSaPj4xg+G9e6TZ/dv9Kqd2+GGdGGFHmIq9ipU9XaI2PxQ08jaOwbH1OYlQNamC6sNG512rHUcayWY3qai2nWI9BjLovmkAQFvOB/c+Nh5vu4B8hrxFdvPqahcRFwFRnuJ2PL2kLAASZOUn989ZBZuwUb27pNajwr677xnHap53kW0AmO4E3vtYVMmQPL0Ev09kijdekM1bxqIaaBrMkeVAmMoKkr0DBkJkFHKo0yqzMJ1WMjiae67sYYK7RdU8bSISH2uEr6bI6ZUA6TODLyqIxnv0ahCFR1f/aNnCQmMKPAWigpkwmK/oQDpUeAJtHOZvtDOGyx7h/Hm/Q16FP/m+wrlLXxEuM5V3tURW6oBMqTIraJG9cJ3dUgIWn0qcBHPQ10jdHvir3hFjyRm/RoJkLsUGEA78ZT8ok6FH6x8RQjsdix1ahfWVmkwqVBWDxEmFCtfRwKpBohPkfuwyfBWP6SsAWJ5qqsVZ0YRKHomMevXSIBMKTBFHBZ9rLli7SzFnK4hjKt0z31KOU+wVJ1iDwMkkWqAoEaBD7BMMHhfo5TnRcTQYLQZkrgv0Sel6V+fYAlDATJQb16y6GPNlR2OnbbmeYp7PN787itKKPtYpkmhpodE0g2QtxRowj7+k/ZrY4X7R9rWIz2jyTm1M4nrOiMB8iTl5xPP8jfz0JQLjp3OYCPUb40pkOBr2LtNrYuh0w2QMQVc2Kk7W5hppbmlrSl1TpFHUPNRYtSxkQApiHsFtLuev71PZlg7yeQKNkbjZdKCSC3Av+bUOzcv3QAZUeAhrFW/NQ6ZSAerucJtUkkUKdKCmjGTvlcxFCAlifeiKuoUuYcNctWx0jlsktLNUU31CNKkQDlAUukGyF1xP4/NGi+rFc1HkDva5iF5ofhYqua2xPHGSIDgRZovCfPV9GHYFcdGe7Bp/CQZ8tTHPxaaW+HTDZAWBUIPdgteTkKNE428ir7rvLLBee6+RIHFUIDcSbmP93XeanbGHHBsdBAbyL/5UH4OeaB7ZkW6AfIo71XJoNVhPGEDKzzQOM5iQoEFlBTIpHdtpgLkY8ptWP38DT00Y7tjo/UbYhJTcfZaspfnke4DSLoBMqTII+RBof2YcdzHCs80fhRNCoQ+VLykwCssYypAPlCgA+3a4qr95tjv2OgiNpZ3s8PVaj7+8oHRXnuQkGqA4HmuHoJEKN0vc7WHWGHGaEMk06K5MVE9iX5lQwFyjwJhCbrdz9/qWRMsfUd4FRvt0R2JSuxI951sygEyFn8Z5YXXes1VKj7Eqhqnj3QNtmF1JELfUIAUU26Lur4GJ2YtjjoWWsspikkMXnAJ4a9nR/fvT8oB0s7fLs/l/FlFdRFiWWM1yw8p0IMCrybxpW0oQPBU/N/ULaDIFBvjmGOfDT+AfBFUKTbBX17oHq2QcoC8zHsV/ZfCK7W9DoHWevArY7f11yUW2hoLkAkFbnvQ7c3/KvpXhx37bHAF5JdpspWAPqM9hYyUA6SwRp31pfcU6kFoLnydl5RrLJlnEodGYwHyIeVNGqMVJcpNYeE+wo1twfrTgEn6Z4ba9walHCDeJ/buuzl1I4oCOCmTOpM6SSY9kzIp5wBBQkI0UwMYgzGYYmPA/ft/hbRJZ1fSeldZlPz+9zO8x9Nhd+/eu6LEDAfFKVCmD6mG1lPvNWXWUNdSuGJiLEByTHYP64Qyc/xXPJ+xzn/yDsgel3G+Oo61L6gTDhCUKREcWF2Lc/qEjaOe1vqeKmXOoKyosmY0FiBuhRIVH5plD3B6uQEvZazzAf73q9MYBZhZ7b0Ikw4QeV4ucVhqFxSrQGqqt6nLghIrF6rWKg0FjQUITpPdA3XOKbGwvXeCLp9nrPMO/verqhd9V3enff2edIBkeaD9FPc7oQSkVnoXk4+UqUNVnwrnbuYCpEOZawea3f/fTxHAxxnbfIT//eYu+ic0d/ArEHQpM8ZhcS8o5kIiT7EN4hvSyBWbPGUeIWAsQKqUGkKzdbq+8CixsYr3PzIHJJJ69ABpa39GJB4gBcr0cGAeVeuqjzWvF2qUCYpQobrlaC5AcKUyhU3diP/PBAHez1jmPzCIMLpa9ADJai9hSjxA6pQJDuoqCOS1VA4kHnSvw6aU6UCJU6KEV4SAuQDZUKoDzVr8/yoIPstY5l387w9B5DOQqvZecokHiLuizBkOy5xikLlTmCYlYeh0oE6lsmuDAVKlVGUEvS4ptcN/gHW9eJ9/Ff/7Qzfy57NGsXOoSDxA8Jiq/5Ft1SqsWwr9ABV5Gihw+0Gtx5bBAEGLiR5LVCn1w3+hEOutjGW+wf/+5CLyZoaj/bpx8gEyp9TtYV3vzSm29nI97eUQfcpcOYjvWPFgxWSAnDDZTaxp2K9LvxcylklPG8Xq4LKGpwoo9Pc/vKv7O2byAeKUaMk5+u5h6eKJjhXnOLX1P5PW1H0b3blV3G40GSDFCqW8HLQaUir4D5yjf5KxS3q6mBQXZOXEwZPkKRTgb1q663iTDxA8UG6IZByTLE3wNB3Fqoa1/jbhfoUyXV/pzSm9TpMBgh7lFlXo5J5TqlRE2tlWhJWeS4SX/Fkri6c4jnEl+Uz7dePkA6QWUCrIIRE/8Ge9Ip7iUbHRxRHFRlDTpN7GG/kVFVu1GA2QLEOURtDpiHLTw9p0VfBcxirPPYO0uOIvvIEPdc0YX2IftM8NSj5A0KPcqo0EjPmrizXUOReKfTX6FLqAoiqpcwCS01ee2Ws0QDBjiG0VGuU9ypVTniCvZuySnhreLH+zrUOVu6DQAH9T17xJgX8jQKoMscrBvAF/M81C1Vy1ubgkePpQNaNUt4Y4NpQ69yFkNkB2DLPIQqMCQ5weWBPQWOybZ/sG0mLAP5xWoWYd51x8pL87aPIBgjOGCNYw669n+V6zCDWnihfRR0Z6vLZ1brbUKfc9xMwGCPoMUxlCn7HHEDeHdv81lm8zVnkfaeF0+SdBswYF7jZWZW5Je8+85AMEVY9hCj70kr/+ixMXCiYUu1L9wTWUnerbbMkFlDovQsxwgLTJRD9APYa5SHNbxS8yVknPEfqEf1X5vojYmhTb4h8KlKnMEVvyAQL0GKqUg6pa5/4sG/cllIYO4vJLquXIHYq1oWxHXQkyrzxlAWI4QHDPcKU5dBlVGKpQhKp2s7yx+RjFrnGEKTpCL/Dvzgc1xLOMeSWiTqlgiHj+nQCprRjuLA8FznHZI7koQmJvceZ1w0UsTll5NfhIMR/q7hliWkQUDY98QlGw6QCpBoxgNkYc7rgIge8Z7qLhQMHo8pYkj2AtyxqZpOcIfW9Xp0ovixjmQcxxA8WAcgMHcRgLELkGIwh6VcTj7JqLKCVpgiDufj9CdE5BfbriDYWuoSzKk3W7Qyi/wDBryJgOEHzPSO6yiMiZFCqsTLCfe80Irtcu4ikOZx5/sbJ3CWLZNKn0HKEvud906SOitRd7jlyZIaZjxPAvBYjTYiTluYOo/ONmN/KI+Hvu5d1NHETjl9X7tDqBqQavA4Zq+pCblxim5UDGeIC414xmuvYRysk1u/KWk3NGstjkEVm1MfP4uzps9V3GJq8gNWYUqRQiPYaKZ5QqYI86w3hnY8TQNBQgcuOA0Sx6ExehavPvp17k1mDShVz3qI0IdtdPaF44ptgG6qI9WS86PsR2fYbyspAyHiDIMaqg3MhDzMmelFfhpdc9RtTqVBHKGa97pUNpDG/XGfrbSIuaR4nzs3rYLnxjQbk29nBKDNcf+gjnjJebcpemAkSuw8gqp9/PaxCo7Yab+y3/6RISDcpsm3MfUvlHyi1cSCwpVseTTBjB+WCMvfx1ixEMIGc+QHDEGLZ3D8fZIv7CzbeXD4VWEK0dkF9iZKVCI+tiP7c6P2lOK3tyztqOKFYNA3n+PaRFg2F+OKrXIJB/6Ib+OPbqMIpK+WQMESefawzubwIKmQ8Q55SxXLQeByfD+nFul/vJcX3Y2fTuplcrtTLaPkME/c28iP2cyZ3HEBvIDAxO9W0yktujv78/p92ZBYzixoVcAgHiXjGu1VWrPyv/ZDa9Ka1itgPaeYzDu571HhrD4/kvn9fJ8XJ9OXictUoeRRqwk1330N9EarQYRXc2GLZHDv6smNu0GG6JvfwLRrQ6PWpM/igtcWrj3XFjU5jdBhRIMEBQ29KsLITyjKRU3vz9H88ZDx8XDBXUIDMLmSalLtaTtXta2HSGP2k8HJVvPAooNKA1HyAYV2jAEiInNKsPO72TsUl6LoFUGYPXbc3uC82jo2bhvtVlJLcO9uswptW2VCqdV/gHGwIE7YBGDSB0yTi6P/TLZ4WflPvXASNpQmobvu5Ul63QrAbCmQ8QLGnADEJnNMvS2+xW9XJ/LT2XQL6nYXUIuFdUYluAYEmjug5ErmhWpQaZompTfiv+XgsIlUiAYED9vBpE3CmNuoSVXsxY5Eukxi3N6kNoQokDChA80KgcBLI07BJSOcMT7o5oUMtFqGQCxClTvw6Eirc06QY2eubDjEVeR1q0aZY3hliPYocUIGjSpB4EjqiD+vjYE4pN8HTOHY0p1RAumQCB36J2P0Asv6VJVs42tGoeeop2sDY06wES/jWFDipAjCWIvKTmBxrlZSHXo9gIGujZbVEf95dQgKB4Q+3GEKtuadAAFrKqFe9XSI0yjZo6EJOekx5WgJhNkDr282jUA0K0KHQBLfwWjViMEUVSAYKa/gQZQKJaojlbB/b5OmOR9OxgYUCTuiPI1SlyYAGCB5pzj/1aNKmMEE7FdDGnqQQ5HyOSxAIEtRbJBB/joxuak4N9XsvYI0U7WHDLNKeyQ5gOBQ4tQDAMqJ/8dm/1huZc+QhRpVgTmvin1G47RkThAWLv+8wZ/H1yPVjn5YxFvkGarFc0xKsj3CX3OrwAQbtLU9bYz914NGQ7Qpi69BXr4j5Ss6sRIkowQOA2qVcBUs6Appzb15L37YxFPkWqjM5ohLdEFB3uc4ABgtopDelDJDulEdsqQn1PsTb0ufSoU7mIqJIMEKARUKeVC7n6ObWyuSWvTZ0UP3wWKTO5oX7BElEI9n4OMUCATkAzRhAadqlfqYpw9xTzodH8nPpsHESWbIAge0udlggx6tOMO9jmuYw9UtQH6zdOY0HNVhNEI9j7OcgAwbhFI+YQ8zcVavbDCBFcU+gaWuX71KSbQwwJBwj8HjWaIYxzsqIJ17CMVUcgHyOF/EGFOl2PEV2tTKNmENEdIHAaKxrQhkz+kVqd+YjAp1gZejmXAXW4KyKOpAME2F1RG6+GUKN7GjCFZay6BfISUql2FJh8BMkNL2jOqg0R7QEC1JoeNfN+ZO/Od5SGojCAX5e47xq3uMQ10e+UQilQKFCWkb2AMLI4MDOO+v6voP5h1GSK3dDDcH4v0BDanNuee76bxF+4Q4qN5cCXGnlbIG52kyJbthHMvy8gSM+nFJc2fBi8o7gdsJtFf6D4eI2TqhfXW8isg6DMBq3Hh+FHE97iLyCAPaRYDW38nZuyKBZVF/44/7SLGr3ZY7WyCChEAYnOrFgUjxr8MDoHFKedLrtNWKc5BWE9wcllzpcUXaqIENw8xW05dGystJYCAtgpi2JSqNjwR2/NKLJx14BPFfJmYw3SXwoU3lcdgYUqINH1ygWKzlrAJ2NySHE5/MiufADXFSPPcZIZ7T5F06whJPerRXH5MEruFuHDWgoI0EvuUAze1U34l/5YpUissgnfmkFPk4rOTI4pnKGLUFLkzcXamPMcRfPeMRHAIJ+h6ApDjkPovM4COUlj6MfTk58otGYCERTnnyiyab9V0uGXtq5I8nRplKFIci0XQbnlnQgvOzoCmAaPgo3OrB9QYNOyjZDm/2tcztg9KlBImWZdD/HYH1AkmX4nC54eKj5eYAtorU8UQiGlxXDpPQotl0+2bQRiVMlLQUc0ptO3KByrX3cRipGoLCmEg7mJIHTylsL6GLvDQsC1eBahpUfkYdrGmmU7+TDHb6YmJsKplUPXkGWqZIIrVseh38Z2cOt9K+ACxMkiFrYzXFJAhWqjux/q+mbrc/5YDQ3RZUuNwLW48L61m0UUWvJ9hoKYNRIIqE3eulir7ORoHGAtHo2tHS+LfyA9KFcz5FfmMPVRRyR2fTQN3mrsstt29YfHipEb2BrpQbI/Jl9mR50i4lQczI8+Zfw8NAejcnegc0yQ/qlYavVn5MtOv/xRMxCD7GDRnJIvh+WEgcCS5G0f62bsJ/tTWilTrTBeFQf5J78cfaK/mL1v1PeziIOhdVPvMuSHdTj8slsEdzcVH2ewZfT2l6M9a+VNlHI0A+tg6ImPi9So+mlGf5ouD5v51MJp14qcK8fvegOn/Lm6k6HjFHLVo0q9pGVj//OSn/cK5G1ntGibCCUfMcgkOsOdLPLH/bxMrllx9rl+kA8lq5XqjXx1adEfCsvqqDGf7BcRM+PH9fp7YzrWh71+quUkWC/bfjl1X/FxspJ4fSvWSvVy6nPzMPdhPLaIaDzLvesPy922beAfMExT121Nc3W9Z5qbcd8er+jWBqVOx+l+1+l02oma20tjrYpaqd5qDPvVg1xuNv7uw8G75lFlPqmZCG9JnvbwL5laouR0k8lFK5msO5NBrbfJ98ffpE1b07RE4sezUExj3dI9bX930ul0v3M6ndJuQrM37bWO1SbeE5ljIkRQRfL2FUKwcUcxskUtECG8tclbHUKwcUXxcQVCCKC1YUeaim11VTHyCkIIoPnfe+hC+PFMMSItECEAGAUuPXQhVuA1hq4uQgiBGnlrQAgubihG7p/4ICwh/JiTtwmE4OKtYuQ8hBBAn7zpEIKLS4qRuxBCIF0gT0sIwQWrIEX1FEIIJMjbEEJwcVtxchlCCLTImwMhuDivGJExQiF+2CNvLoRg4oLi5CaEELBJWiBiE7xRnDyDEAJfZApEbARWU4TSQxfihyp5a0MIJljlYCl1AUIIm7xZEoQl2LirOLkGIQQW5K0PIbjglOQuc+hC/GDsyFkgYhPcUqzcgRBil2QTr9gELxUrkuUuBDAiiXIXG+D0NcXKLQix9WxaYQEhmDineLkHIbZeRb5giY3wQLFyBkJsvV6BvB1CCCZ4xZgodQlCbL0GyR4ssQl4xZgo9QpCbDs3Qyv0IAQTjxQvbyDEtmvSCiMIwcRzxYwkYYmt1yWSHCyxCV4oZq5CiO22b9EKOwaE4OHyWcXMaQix1b6xd687TQBBGIa3GE5RMIZoiMHzMc7QgqWkUEqhBKUVQ0gDIkUK0vu/Bts0JJpIS/fXx/Z9bmKyOzPf5I68n7YBItRa6EzxYtRtNL2f4oYBIrRyFJnixcgrXbo7p6RwFzwMarhni5F23PC+CiUDRDwKasjiRfrqV1tV+5/sVx9g2QARalvoHZ8MSFzZOy7a1bz9LX+wd+mDFHmAQMbzIOexAYk79J5Ca21z57hWK9d39n43C34LWwaIUAty75o2IG05j9ZgBAsyngU99w1IW9ujVQxQoRaD1ZUxIG2XHmubJXTI0JvhZY8Q6at6rHU66NDxIehZMCBtWx7rmwEqZoKgSQOSlj/xSFcGyHgXBL0xIGk1j9RaNUDFlFwOb9dbA5J25XEaNEAgRHCJsOOJASlbKXqUYtYAGePzQdGcASmreJRC2QAdcodAeiYMSNmhRzk1QMfYvSCJi+hIWsljFOoGCFFMMel6bUDCljzCOv9XkJJ5GTSRpYiktXx4R1UDlKg+QMKMAemq+vAOcwYoycidQr82ZUC6vviwCnsEKELMRFA1bkCyPp/4kJp8X0FNRjHHvceAdK34cBo7eQPE6D5A5g1IWMuH0FhaMUCN8ANk1oCELe76be1WCE+EItkRLAoIklf6ue2DXZx9N0DRmOoOCAUEI2G/vvzLb9ZcPt03QNRc0PXAgFGQK5+tNX/4P44u1jYr53xcQZlqChYFBCNnNbd4ns3WDrLZxdIG+x64A14FYRQQAJA1PhuELRgAQJTmIcJrTw0AoEnzEjoFBADkfQzS3hsAQNJ00EYTHQBETQZtFBAA0PQiiKOAAPjD3r3gRBUFQQBtkTd+xonJiB/8jqIG0vvfHySQACu41ck5m3jJu11VRApuUfQBAUiWXGJy79QA5NlHZwiVKQLE+lfxzhuAOOknvCZtAUK9rQG2BiBM7hD6U58bgCxb8gzIo9cNQJaLGuHQAEQZ8YJ+59gARPlaM/xqAJLkZ9Af7BqAIPsvNcSHBiDIVU3xuwHIEd/i/uhnAxBjO9UY1w1AjL81x2UDkOJPDfK/AQhx9q4GedkAhBjSYaLPHSDMsWZRxwuQ4ex7zfKmAUgw7AeWMiyAEO9rGl0mAAkmRQgffGoA1ruucUTRAQJ8rHleNQCr7WfMoD93agBWu6yJXjQAa93USIcGYKnjeY0kCAKw1jaqQ1EQBCDGwAveexcNwEK7msqkFMBKh281lTtegIW2aR28T20NwCpXNdixAVjkR022awBu2bujnISBKAqgg8REIAIaFD+UqIBA3v73p4lEBGNsDW3pcM4m7sfMva8ZvZY2QLZmAUAjpm1tgGytAoDCTGDtdAOAJsxS2w0CgILO/AbIgVEAULvrh9R6mwCgCA3CA/MAoG6rlIHHAKBmk5QFYyYARWige0UHaNhruxvoOy8BQI3Gw5QJXXSAP/iApYsO0LhO2xdMvhsHAHVZpoxYdAeozX3KyTIA+J0PvKqEAE0bpcwY5AWoRS+DBcV9dwFA9cbdlJtFAFC5QctP2HoEAWjG5VvK0FUAUK2LfsrRUwBQqU4WF0B+WgcAlVqnPJnDAqjWIuWqFwB8kR9uggCchLwGsPb1A4At+VHKNACoxiZlzaQ7wCf5UdI8APggP8oadgKAkB/ljQIA+WGRF+Ak5P3/ShkdYEt+/M9tAHBUk3QeZgHAMS3TmXgOAI6nc/PO3r0tJxEFUQBtMKg4oES0IFgxilpR+///Tx/UirmQmcPwkl7rL/qc7r2jDG9YAOOZXkQd7xKAkcyeZv+gPSyAE+t2UYpbQoBxrBZRy7cEYARvn0Ux22kCcLSrD1GOTHeA411GQRcJgPiSFi8TgGNMv0RNnxOAI2xKnX/ctEgA2i2rre/esE8AWr15HXWpRgdodnkWhZ11CUCLydeo7UcC0KB7EcX5RgdoMf8U5UlUBBjuecH0kjuuE4BhJh+D31YJgO8PxYQAp7YvF97+kO0sAejtZ+nrj/+tE4CeZufBP4tJAtDLvHD4lV4pAM9Xo9klAI/bXAeOCQEG2zs+V20LMNykaHXtY+YJwCGrXXCf8wTggLXsKyMIwHCd33PNhAAN3ssuOWSZANxn8z0wggAMdmX8MIIAGD/+sIgFcJvfj54sYgGcUCd5V7ctQIP1NuhnnwD8tXwV/GLv3paTBqMwgKahnEQKUg5VmWAhVel+//dTx7sOtqZNIcm/1kvsmX36/tcwAPgrX3vcXsUqAPhjJzeqmq1oQoDf5obn0tEBqsvvPU6srtcPgMTpXr1OEQBJm37OeJXreQCka1PavXJNCFBZfnQ5+BazAEjTyvDDKi9AdXuH52/2GADJGZud1+BuFABpmR8yZBMCVDWyelWbXQAkQ/mo08c8ANIwWSoftVoHQAomS1+vanYt3RZIwLxUPur3wTEI0HXTn5pX7+IYAF22+JHxPr56qgh02G6Y8YR8dICX5Ld+Xp0gnBDgeaPiJuMJTSyAl+wPJuen2cQC+Lf+7feMs7gPgO6YltKinuWcEOCEfGDv6qy2fmIBnbAoDc7PrQyAtts8mnxcwioA2uxq9cna1WXcSCcEWmz/oHVVkYN0gBgX3zKqEw0CpG283mZc2iwA2mVReHbVCD1jEKBFrmZLnavGGHppArTEZnAwNW+UIgCab3p0bN48rkGAhpsMHnoZDXQ3DYCmymfFl4ym2vaDX+zd207iUBQG4A3IGQSLKCAUW+Sg+/3fb8aJN5NMMuFQhfb7bvoIK+le/7+AK9QcPfUkza/bPgJcmf467QWunzwhcEVq3clB1ONmtCLAl2HSjD+lNmw99l4CN+QuiQB/1AchLDfZuhO/Vz1ZvXnxuEUS6cCXLHy5b79NRp1YvHq3le79s7pdO6tYwKfOLPxl1jtkreQ5FqE2XE8e50bHzZvrNAF+O4R/mi026WSa9OMl1MejVbY1OcpjGwGS/72YDtqbt2w1TcbNeJxafzhqfaSH/UKqvHyyCFTeManvxmAx32zT7H2yaq1Hed79NO50hp/fPM/X09bkI3t6POzbu1erVeVmmRcqbxXgFHfOS0HF9dWlc6IXcRCotk2AEzU080KVjQKc7FWgEKqrbq+WcyyfI1BRaYBz7EwQqKiuIirO1FNqApVUc/iPs/XqEaieLMDZ5iYIVI8fWJggwClquwAmCHC8pwAmCHC8JIAJAhyvvgxgmxc43jbABS0kCqEqpgEuaqkXC6qho8SdSxuMI1AB7QCX1uhGoPRE0CnCfR6BkssDFOFuGoFS6zcCFGMSgRKreQChOGkEyssRKYr0IJQOpSUBQrEW/QiU0ngWoFCvwwiUUFOHO4WbrSNQPg8BivcegbJxA4TvsfGUzi/27janrRiIAqgJrzSK8vVSaChNBSmgJ8X73183UIl/9ox1ziZG1njuZTAPBdp4ka0IQzn9LtDI/aECw3CBTlPXCgxi9VKgpUVNIYzhbinQ1lbAOwxBhy3tTcIVYQAqQOhi1pUO2fnASydvpwpkdpgK9DFd7yqQ1kmCIh1tjhVIarcv0NHznwqkdHRASG+zkhDIaL0t0Nv9QwWyOV8KBOARAtl8E2BCEB4hkMt5UyCKRcY75HHWYEskz7cK5GB+EM1GviKkYH4Qz/Qo5B3iMz8IyTIdwlubHwT1fVeBwI7uPwhr+pDyDnHt3grEtb/J6IWgTvKvCG77VIGA/spvJ76NrimI50l/FCkstukQzK1AEp/STSCSxwJpTB9GCESxmgtkYoRAEOJ3yccIgQh26gfJaPq0TofOXn3fJatZTi/0dC2Q16/XCvSxei+Q2uXHqgLtrbWfk9/+p306NHeQfsUY5kMFvmD9Af91uUl7h2bOS4GBTO+eIfCPvTvZThsIojBcTGqQ0IA1gAEhRlum3//9EpJzHJ8QCMZgulv/t2LPoiiq+tb3GHD8A84ZrpiGAPeXEr4LJ6mypwHc0ZjwKzirO8q5XAh8wPYVcLmorqghwD20FgK4LqpzHhgCt5bweBDNMBl5gQZwO+lMgMbw38hbBG4kUQI0S2dHIwLcQEp0OxppuqjY7gW+ov8sQGNNs4q0E4D2A7jOfFcOWPAFPmvA8hVwMFGZF96xirRCL1Md/jGDO3qZAHg387dpHOgbC+J058/koNSAIyqSE4Fjkdruq7Ctv6wd5m87FckfSgNOSEi+As5Yqroo47B3RWsfxmVRq6UcSzRgv96C4F3gErOhP9oWqVetw/7JatLrh+vKS4vtyB/O5LRCA9bzCE4ErhJ1htOf1C+HT8NlJBfrsO0F2z35AuARcg3YLKkFwGM8a8BeQcbwA/gmjNHhkt6Kh+fA3TFGh3vaKbNz4LE6XLSCjSgfgAE8DdiG8gEYYarRDIs61G5o7ykfgBmeNJqgHYmMXPiyxyvKB2CKjUYTpHKgYm23JOPgOWCObl+jAeby27y0eG/iaSMATLLQcF8l76KFnb8ZWrkSAGaJuCvVAEo+6G7W2jZ9Rh+AifYarhvIX+Z7q47vxyMySwAjLcnkdd5GjnRrW3aygv1cABiKx4SuS+Sf5ivzpyGt/FUAmOtFw21bOUV5Ro/ABhmTD8BwlYbLgq6cNtvkhi72Jiv+ugLM52u4LJPzoroybg6WrF4EgA1sf5+Mc8YT+a+oNqkPCd+mAsAStCAuK+Qi3dcy0I/XirOhALAILYi7xhO5mF+sW/qBxt4mEvxg796W0giiKIA2qKBc5CIgl4AiTkD7//8vVuUpiaWiODPdWeuFT6Dm9Dl7Q1rakVzNwlHmo/UwVqE52BhcQZJ8guTqdh6O1itK/hNpjLdtt+aQKq8gudqEz7nfra8asQS3d5uOjHZImluQPHVX4fNW7c30Mn6f5nhduPWA9Om2zdNj+KqzxabVb8QTu3h4Prj0gFxMI/kZnoeTOF8ettN+M55A92E9WdwHICM/aneMzNcdwkn1Fo9PrXE3fkazP1jPDh1rupCjm0hursK3WPU6u8lTazAe3jbim5rd/qB1Myv2HamIkLOzGmVZcBqL8O3mvWWnPdoVkxeb7XY7e/ktimK3by9711Zz4X+xjeRlEABKMa9DFBInZM0JKEsRyck6AJTlKpKPC+/WwHtkKvKaTQB4m2tCXjO0AgWUqWeVNxujAPAeq7z86y4AlGp1GclBQ8otULZRJAdPAeBDFIPwh0sVTcCHeEfnL/sAUL5NJHXTAFCB834kbRf6moBqdCJpmwSAY6iW4rdxAKjI3DFIypyAABXaR9I1CwDVaUVSdSVEEajStXLCVDWWAeAohlgYYAG1YIiVJgMsoHLXNrFS1PwZAKq2iKRHjS1QB8+R1DwEgBpYycRKjQwsoCaWgt0TswsA9TCJpGQdAOpCO2FKhvMA/GLvvnIaimIggN4QQWhC9KIgahDF+98fG6DkK28cnbMJf9gzJsVcIL0PEXQgilvePjwBAbI8Fz34YgukeSk6OD0ZAFmsQVqwAAECLWZFvNUAyPNQpNsbAImuimwHywGQ6FYpVrab4wGQ6X63CHY3AFJ5cJvMDxAgmUV6Lgt0IJsX6aks0IFwy4Mi0f58AGSb7xd5diTQgXz+EyY6GwD5zoo0DrCAHny4TXMxAHr4KpI8DoAutGIlccALNLI8L1KcOuAFOjnRq5jiSIMi0MuTOEiGXQEQoJv7m2J6O4sB0M2hbvfpzQQIgY4WIumT+xgAHb3PikmtBkBPr8WUrgdAVx/F2swPABMkwucA6GxVrMX8ADBBIpgfQH8myBrMD4AfvBX/MD8AbNIjuL8CtsWrROFGXQ6AbfGu1eRv8ucAv7jTrLgpM/1XwDd7d7SURhBEAbQNbCqwBSoIAYFklSpJmP//vzzEBy1F2WXXh9lz/mK6p+/Ny1i6+9f4dgiAvGw1TH2FQv8HkJ9Ky233yqcAyM9glujWpAqAHG0WiS7NpgGQqXmiO4tNAGTrV6IrxwDI2a2Twm5cOR8EcndfJtpXOP8A8leNEm272QZA/lY+Y7XtcRAAvfCQaNNuGAA9YZVufQ7QzNNNoh3lOAD6ZPo70YaZ9QfQO8vE5ebWH0APrVWEXKrYB0AfVeJ5LzNx/QH01fBvormd8ESgxw7GWE0Vus+BfqseE02MjK+A3lteJWo7+n0FEGNHhXWV6wAgYrVL1LFwPAjw7KAkxPYcoJGBiPdzXVcBwAt7H3rPUdwFAK8NxCt6fgA0s7cJ+Vih+QPgfdPvidMWnh8AJ63dhJxS3gYAp20eHKa/a74KAD60lY711ug+APjUH8v0135angOcZ3U0x3phJ7kE4Gzb68R/M9MrgFoOk0RKPwRfAdQ1vBNuUiy11gL8Y+9OstOGgiiACgQIYcCALRnIoRVCBu1/f0mGmWRgOjX3Tv4S6vx6p6p+YHrtlm3WEX4A/NS+zaPpiaO1ADc4t3XF4nEUAHCTURsHCxdFAMDNokXZLrG1VwB3UrSphCgfAPe0aksjS/kAuLeoDcPpsg+AR1gnDV+RtYsCAB5i/NHc0cLO4BwA8DDTtJm73r8u7tUCPFgvj8ummZzcGwR4htGgUWHIbhUA8CRhOiyb4e0yDgB4pmLXgG/IMesFADzbPp2VdTY8+HwAvEq06Zf11E3MDAK81PL7vYatrONpGgDwauFnvXYtTlKtK4Cq2G/rUkNmB4cGAaqlDjUkTq0rAaii8FTlPOS41bkCqK7lfFPFEcN+8i01B6i8dXqs1EckPljTDlAXy+JjUlbBbJOFAQC1EmYvLiKzQS71AKipcH5ZdMvn68SbzIEPgJrrjT4Hs/J53pI0ct4DoCmmq+1g8vBofbg7FCIPgOb5tc6vu2H5CF/Hj5N/B0CzLdfZYRB/lffRnSSXPDLkAdAey/P885oshp0fJh3xbrPNRhpWAO0Vnlff28smeY+H/f9Wk/7bZLEbXNO8GO0dEgTgH73p+LweRcX8jzzPs79vFK3X41DAAQAAAAAAAAC/2YMDAQAAAAAg/9dGUFVVVVVVVVVVVVVVVVVVVVVVVVVVVVVVVVVVVVVVVVVVVVVVVVVVVVVVVVVVVVVVVVVVVVVVVVVVVVWV9uBAAAAAAECQv/UIC1QAAAAAAAAAAAAAAAAAAAAAAAAAAAAAAAAAAAAnAbKakEVeHIAAAAAASUVORK5CYII=;" vertex="1" parent="1">
          <mxGeometry x="-120" y="750" width="130" height="97.5" as="geometry" />
        </mxCell>
        <mxCell id="AuoVzqUumYwT1XtdWO35-70" value="" style="endArrow=classic;startArrow=classic;html=1;rounded=0;" edge="1" parent="1" target="AuoVzqUumYwT1XtdWO35-42">
          <mxGeometry width="50" height="50" relative="1" as="geometry">
            <mxPoint x="10" y="800" as="sourcePoint" />
            <mxPoint x="60" y="750" as="targetPoint" />
          </mxGeometry>
        </mxCell>
      </root>
    </mxGraphModel>
  </diagram>
</mxfile>
